<svg xmlns="http://www.w3.org/2000/svg" width="64" height="64"><rect width="32" height="32" x="4" y="30" fill="#cdd5d6" rx="5" ry="5"/><path fill="#334d5c" d="M32 46a12 11.99 0 1 1-24 0 12 11.99 0 1 1 24 0"/><path fill="#efc84a" d="M30 46a10 9.996 0 1 1-20 0 10 9.996 0 1 1 20 0"/><path fill="#334d5c" d="M26 46a6 5.995 0 1 1-12 0 6 5.995 0 1 1 12 0"/><path fill="#334d5c" d="M32 46a12 11.99 0 1 1-24 0 12 11.99 0 1 1 24 0"/><path fill="#efc84a" d="M30 46a10 9.996 0 1 1-20 0 10 9.996 0 1 1 20 0"/><path fill="#334d5c" d="M26 46a6 5.995 0 1 1-12 0 6 5.995 0 1 1 12 0"/><rect width="32" height="60" x="28" y="2" fill="#ebeeef" rx="5" ry="5"/><path fill="#fff" d="M50 14a6 5.998 0 1 1-12 0 6 5.998 0 1 1 12 0"/><path fill="#334d5c" d="M48 14a4 3.997 0 1 1-8 0 4 3.997 0 1 1 8 0"/><path fill="#efc84a" d="M46 14.001a2 1.998 0 1 1-4 0 2 1.998 0 1 1 4 0"/><path fill="#334d5c" d="M56 40a12 11.99 0 1 1-24 0 12 11.99 0 1 1 24 0"/><path fill="#efc84a" d="M54 40a10 9.996 0 1 1-20 0 10 9.996 0 1 1 20 0"/><path fill="#334d5c" d="M50 40a6 5.995 0 1 1-12 0 6 5.995 0 1 1 12 0"/><path fill="#334d5c" d="M56 40a12 11.99 0 1 1-24 0 12 11.99 0 1 1 24 0"/><path fill="#efc84a" d="M54 40a10 9.996 0 1 1-20 0 10 9.996 0 1 1 20 0"/><path fill="#334d5c" d="M50 40a6 5.995 0 1 1-12 0 6 5.995 0 1 1 12 0"/><g fill="#cdd5d6" stroke-linecap="round" stroke-linejoin="round" stroke-width="2"><circle cx="33" cy="8" r="1"/><circle cx="54" cy="8" r="1"/><circle cx="33" cy="56" r="1"/><circle cx="54" cy="56" r="1"/></g><circle cx="9" cy="36" r="1" opacity=".15"/><circle cx="9" cy="56" r="1" opacity=".15"/></svg>