<svg xmlns="http://www.w3.org/2000/svg" width="16" height="16"><path fill="#565656" d="M8.555 0c-2.096.003-3.805 1.278-4.8 3l-.066.078-.154.045A4.436 4.436 0 0 0 0 7.477c0 1.812 1.054 3.414 2.584 4.128q.205-.307.459-.562l1.059-1.059C2.932 9.85 2 8.8 2 7.477c0-1.355.992-2.417 2.197-2.504l.711-.051.301-.652v-.002C5.829 2.91 7.086 2 8.561 2h.004c1.998.001 3.632 1.665 3.728 3.812v.016l.057.752.677.29c.59.25.973.833.973 1.493 0 .524-.223.977-.564 1.274.345.53.564 1.167.564 1.863q0 .07-.004.139A3.67 3.67 0 0 0 16 8.363c0-1.239-.715-2.293-1.734-2.953l-.063-.05-.043-.182C13.765 2.306 11.476.002 8.56 0z" style="-inkscape-stroke:none;paint-order:markers fill stroke"/><path fill="#0097a7" d="M10.5 8 8.75 9.75C8.3 10.2 8 10.81 8 11.5c0 1.37 1.13 2.5 2.5 2.5s2.5-1.13 2.5-2.5c0-.69-.3-1.3-.75-1.75zm-5 2-1.75 1.75C3.3 12.2 3 12.81 3 13.5 3 14.87 4.13 16 5.5 16S8 14.87 8 13.5c0-.69-.3-1.3-.75-1.75z" color="#000000" style="-inkscape-stroke:none"/></svg>